<?xml version="1.0" encoding="UTF-8" standalone="no"?>
<svg
   xmlns:dc="http://purl.org/dc/elements/1.1/"
   xmlns:cc="http://creativecommons.org/ns#"
   xmlns:rdf="http://www.w3.org/1999/02/22-rdf-syntax-ns#"
   xmlns:svg="http://www.w3.org/2000/svg"
   xmlns="http://www.w3.org/2000/svg"
   xmlns:xlink="http://www.w3.org/1999/xlink"
   xmlns:sodipodi="http://sodipodi.sourceforge.net/DTD/sodipodi-0.dtd"
   xmlns:inkscape="http://www.inkscape.org/namespaces/inkscape"
   width="496.79465mm"
   height="165.8649mm"
   viewBox="0 0 496.79464 165.8649"
   version="1.1"
   id="svg8"
   sodipodi:docname="GM.svg"
   inkscape:version="1.0.1 (3bc2e813f5, 2020-09-07)">
  <defs
     id="defs2">
    <g
       id="g3585">
      <symbol
         overflow="visible"
         id="symbol3161">
        <path
           style="stroke:none"
           d=""
           id="path7402" />
      </symbol>
      <symbol
         overflow="visible"
         id="symbol3843">
        <path
           style="stroke:none"
           d="m 2.828125,-6.234375 c 0,-0.203125 -0.140625,-0.359375 -0.359375,-0.359375 -0.28125,0 -0.546875,0.265625 -0.546875,0.53125 0,0.1875 0.140625,0.359375 0.375,0.359375 0.234375,0 0.53125,-0.234375 0.53125,-0.53125 z m -0.75,3.75 c 0.109375,-0.28125 0.109375,-0.3125 0.21875,-0.578125 0.078125,-0.203125 0.125,-0.34375 0.125,-0.53125 0,-0.4375 -0.3125,-0.8125 -0.8125,-0.8125 -0.9375,0 -1.3125,1.453125 -1.3125,1.53125 0,0.109375 0.09375,0.109375 0.109375,0.109375 0.109375,0 0.109375,-0.03125 0.15625,-0.1875 0.28125,-0.9375 0.671875,-1.234375 1.015625,-1.234375 0.078125,0 0.25,0 0.25,0.3125 0,0.21875 -0.078125,0.421875 -0.109375,0.53125 -0.078125,0.25 -0.53125,1.40625 -0.6875,1.84375 -0.109375,0.25 -0.234375,0.578125 -0.234375,0.796875 0,0.46875 0.34375,0.8125 0.8125,0.8125 0.9375,0 1.3125,-1.4375 1.3125,-1.53125 0,-0.109375 -0.09375,-0.109375 -0.125,-0.109375 -0.09375,0 -0.09375,0.03125 -0.140625,0.1875 -0.1875,0.625 -0.515625,1.234375 -1.015625,1.234375 -0.171875,0 -0.25,-0.09375 -0.25,-0.328125 0,-0.25 0.0625,-0.390625 0.296875,-1 z m 0,0"
           id="path3816" />
      </symbol>
      <symbol
         overflow="visible"
         id="symbol4143">
        <path
           style="stroke:none"
           d="m 3.953125,-6.234375 c 0,-0.1875 -0.140625,-0.359375 -0.375,-0.359375 -0.234375,0 -0.53125,0.234375 -0.53125,0.53125 0,0.203125 0.140625,0.359375 0.375,0.359375 0.265625,0 0.53125,-0.265625 0.53125,-0.53125 z m -2,6.734375 c -0.1875,0.75 -0.671875,1.328125 -1.21875,1.328125 -0.0625,0 -0.21875,0 -0.390625,-0.09375 0.296875,-0.0625 0.4375,-0.328125 0.4375,-0.53125 0,-0.15625 -0.109375,-0.34375 -0.375,-0.34375 -0.25,0 -0.53125,0.203125 -0.53125,0.5625 0,0.40625 0.390625,0.625 0.875,0.625 0.703125,0 1.625,-0.53125 1.875,-1.515625 L 3.53125,-3.125 c 0.0625,-0.1875 0.0625,-0.328125 0.0625,-0.359375 0,-0.578125 -0.421875,-0.921875 -0.921875,-0.921875 -1.015625,0 -1.578125,1.453125 -1.578125,1.53125 0,0.109375 0.09375,0.109375 0.109375,0.109375 0.09375,0 0.109375,-0.015625 0.1875,-0.203125 0.25,-0.609375 0.703125,-1.21875 1.25,-1.21875 0.140625,0 0.3125,0.046875 0.3125,0.453125 0,0.234375 -0.015625,0.34375 -0.0625,0.515625 z m 0,0"
           id="path7952" />
      </symbol>
      <symbol
         overflow="visible"
         id="symbol9604">
        <path
           style="stroke:none"
           d="m 2.859375,-6.8125 c 0,0 0,-0.109375 -0.125,-0.109375 -0.234375,0 -0.953125,0.078125 -1.21875,0.109375 -0.078125,0 -0.1875,0.015625 -0.1875,0.1875 0,0.125 0.09375,0.125 0.234375,0.125 0.484375,0 0.5,0.0625 0.5,0.171875 L 2.03125,-6.125 0.59375,-0.390625 c -0.046875,0.140625 -0.046875,0.15625 -0.046875,0.21875 0,0.234375 0.203125,0.28125 0.296875,0.28125 0.125,0 0.265625,-0.09375 0.328125,-0.203125 0.046875,-0.09375 0.5,-1.9375 0.5625,-2.1875 0.34375,0.03125 1.15625,0.1875 1.15625,0.84375 0,0.078125 0,0.109375 -0.03125,0.21875 -0.015625,0.109375 -0.03125,0.234375 -0.03125,0.34375 0,0.578125 0.390625,0.984375 0.90625,0.984375 0.296875,0 0.578125,-0.15625 0.796875,-0.53125 0.25,-0.4375 0.359375,-0.984375 0.359375,-1 0,-0.109375 -0.09375,-0.109375 -0.125,-0.109375 -0.09375,0 -0.109375,0.046875 -0.140625,0.1875 -0.203125,0.71875 -0.421875,1.234375 -0.859375,1.234375 -0.203125,0 -0.328125,-0.109375 -0.328125,-0.46875 0,-0.171875 0.046875,-0.40625 0.078125,-0.5625 C 3.5625,-1.3125 3.5625,-1.34375 3.5625,-1.453125 3.5625,-2.09375 2.9375,-2.375 2.078125,-2.5 2.390625,-2.671875 2.71875,-2.984375 2.9375,-3.234375 3.421875,-3.765625 3.875,-4.1875 4.359375,-4.1875 c 0.0625,0 0.078125,0 0.09375,0.015625 0.125,0.015625 0.125,0.015625 0.21875,0.078125 0.015625,0 0.015625,0.015625 0.03125,0.03125 -0.46875,0.03125 -0.5625,0.421875 -0.5625,0.546875 0,0.15625 0.109375,0.34375 0.375,0.34375 0.265625,0 0.546875,-0.21875 0.546875,-0.609375 0,-0.296875 -0.234375,-0.625 -0.671875,-0.625 -0.28125,0 -0.734375,0.078125 -1.453125,0.875 -0.34375,0.375 -0.734375,0.78125 -1.109375,0.921875 z m 0,0"
           id="path1051" />
      </symbol>
      <symbol
         overflow="visible"
         id="symbol4510">
        <path
           style="stroke:none"
           d="m 2.578125,-6.8125 c 0,0 0,-0.109375 -0.140625,-0.109375 -0.21875,0 -0.953125,0.078125 -1.21875,0.109375 -0.078125,0 -0.1875,0.015625 -0.1875,0.203125 0,0.109375 0.109375,0.109375 0.25,0.109375 0.484375,0 0.5,0.09375 0.5,0.171875 L 1.75,-6.125 0.484375,-1.140625 C 0.453125,-1.03125 0.4375,-0.96875 0.4375,-0.8125 c 0,0.578125 0.4375,0.921875 0.90625,0.921875 0.328125,0 0.578125,-0.203125 0.75,-0.5625 0.171875,-0.375 0.296875,-0.953125 0.296875,-0.96875 0,-0.109375 -0.09375,-0.109375 -0.125,-0.109375 -0.09375,0 -0.109375,0.046875 -0.125,0.1875 C 1.96875,-0.703125 1.78125,-0.109375 1.375,-0.109375 c -0.296875,0 -0.296875,-0.3125 -0.296875,-0.453125 0,-0.25 0.015625,-0.296875 0.0625,-0.484375 z m 0,0"
           id="path5114" />
      </symbol>
    </g>
    <g
       id="g6540">
      <symbol
         overflow="visible"
         id="symbol9083">
        <path
           style="stroke:none"
           d=""
           id="path3975" />
      </symbol>
      <symbol
         overflow="visible"
         id="symbol2154">
        <path
           style="stroke:none"
           d="M 3.328125,-3.015625 C 3.390625,-3.265625 3.625,-4.1875 4.3125,-4.1875 c 0.046875,0 0.296875,0 0.5,0.125 C 4.53125,-4 4.34375,-3.765625 4.34375,-3.515625 c 0,0.15625 0.109375,0.34375 0.375,0.34375 0.21875,0 0.53125,-0.171875 0.53125,-0.578125 0,-0.515625 -0.578125,-0.65625 -0.921875,-0.65625 -0.578125,0 -0.921875,0.53125 -1.046875,0.75 -0.25,-0.65625 -0.78125,-0.75 -1.078125,-0.75 -1.03125,0 -1.609375,1.28125 -1.609375,1.53125 0,0.109375 0.109375,0.109375 0.125,0.109375 0.078125,0 0.109375,-0.03125 0.125,-0.109375 0.34375,-1.0625 1,-1.3125 1.34375,-1.3125 0.1875,0 0.53125,0.09375 0.53125,0.671875 0,0.3125 -0.171875,0.96875 -0.53125,2.375 -0.15625,0.609375 -0.515625,1.03125 -0.953125,1.03125 -0.0625,0 -0.28125,0 -0.5,-0.125 0.25,-0.0625 0.46875,-0.265625 0.46875,-0.546875 0,-0.265625 -0.21875,-0.34375 -0.359375,-0.34375 -0.3125,0 -0.546875,0.25 -0.546875,0.578125 0,0.453125 0.484375,0.65625 0.921875,0.65625 0.671875,0 1.03125,-0.703125 1.046875,-0.75 0.125,0.359375 0.484375,0.75 1.078125,0.75 1.03125,0 1.59375,-1.28125 1.59375,-1.53125 0,-0.109375 -0.078125,-0.109375 -0.109375,-0.109375 -0.09375,0 -0.109375,0.046875 -0.140625,0.109375 -0.328125,1.078125 -1,1.3125 -1.3125,1.3125 -0.390625,0 -0.546875,-0.3125 -0.546875,-0.65625 0,-0.21875 0.046875,-0.4375 0.15625,-0.875 z m 0,0"
           id="path4523" />
      </symbol>
      <symbol
         overflow="visible"
         id="symbol622">
        <path
           style="stroke:none"
           d=""
           id="path4469" />
      </symbol>
      <symbol
         overflow="visible"
         id="symbol6747">
        <path
           style="stroke:none"
           d="m 2.265625,-4.359375 c 0,-0.109375 -0.09375,-0.265625 -0.28125,-0.265625 -0.1875,0 -0.390625,0.1875 -0.390625,0.390625 0,0.109375 0.078125,0.265625 0.28125,0.265625 0.1875,0 0.390625,-0.203125 0.390625,-0.390625 z M 0.84375,-0.8125 c -0.03125,0.09375 -0.0625,0.171875 -0.0625,0.296875 0,0.328125 0.265625,0.578125 0.65625,0.578125 0.6875,0 1,-0.953125 1,-1.0625 0,-0.09375 -0.09375,-0.09375 -0.109375,-0.09375 -0.09375,0 -0.109375,0.046875 -0.140625,0.125 -0.15625,0.5625 -0.453125,0.84375 -0.734375,0.84375 -0.140625,0 -0.171875,-0.09375 -0.171875,-0.25 0,-0.15625 0.046875,-0.28125 0.109375,-0.4375 C 1.46875,-1 1.546875,-1.1875 1.609375,-1.375 1.671875,-1.546875 1.9375,-2.171875 1.953125,-2.265625 1.984375,-2.328125 2,-2.40625 2,-2.484375 2,-2.8125 1.71875,-3.078125 1.34375,-3.078125 0.640625,-3.078125 0.328125,-2.125 0.328125,-2 c 0,0.078125 0.09375,0.078125 0.125,0.078125 0.09375,0 0.09375,-0.03125 0.125,-0.109375 C 0.75,-2.625 1.0625,-2.875 1.3125,-2.875 c 0.109375,0 0.171875,0.046875 0.171875,0.234375 0,0.171875 -0.03125,0.265625 -0.203125,0.703125 z m 0,0"
           id="path5640" />
      </symbol>
      <symbol
         overflow="visible"
         id="symbol2236">
        <path
           style="stroke:none"
           d="M 3.0625,-4.359375 C 3.0625,-4.46875 2.96875,-4.625 2.78125,-4.625 c -0.203125,0 -0.390625,0.203125 -0.390625,0.390625 0,0.109375 0.078125,0.265625 0.28125,0.265625 0.1875,0 0.390625,-0.1875 0.390625,-0.390625 z M 1.578125,0.34375 C 1.46875,0.828125 1.09375,1.21875 0.6875,1.21875 c -0.09375,0 -0.171875,0 -0.25,-0.03125 0.171875,-0.09375 0.234375,-0.25 0.234375,-0.359375 0,-0.171875 -0.140625,-0.25 -0.28125,-0.25 C 0.1875,0.578125 0,0.765625 0,0.984375 c 0,0.265625 0.265625,0.4375 0.6875,0.4375 0.421875,0 1.234375,-0.25 1.453125,-1.09375 l 0.625,-2.5 c 0.015625,-0.078125 0.03125,-0.140625 0.03125,-0.25 0,-0.375 -0.328125,-0.65625 -0.734375,-0.65625 -0.78125,0 -1.21875,0.96875 -1.21875,1.078125 0,0.078125 0.09375,0.078125 0.109375,0.078125 0.078125,0 0.09375,-0.015625 0.140625,-0.125 C 1.265625,-2.453125 1.625,-2.875 2.03125,-2.875 c 0.171875,0 0.234375,0.109375 0.234375,0.34375 0,0.078125 0,0.171875 -0.015625,0.203125 z m 0,0"
           id="path235" />
      </symbol>
      <symbol
         overflow="visible"
         id="symbol9660">
        <path
           style="stroke:none"
           d="m 2.1875,-4.625 c 0,-0.015625 0.015625,-0.109375 0.015625,-0.109375 0,-0.046875 -0.015625,-0.109375 -0.109375,-0.109375 -0.140625,0 -0.71875,0.0625 -0.890625,0.078125 -0.046875,0 -0.15625,0.015625 -0.15625,0.15625 0,0.09375 0.109375,0.09375 0.1875,0.09375 0.328125,0 0.328125,0.0625 0.328125,0.109375 0,0.046875 -0.015625,0.09375 -0.015625,0.15625 L 0.5625,-0.3125 c -0.046875,0.125 -0.046875,0.140625 -0.046875,0.15625 0,0.109375 0.09375,0.21875 0.25,0.21875 0.1875,0 0.265625,-0.125 0.3125,-0.28125 0.015625,-0.03125 0.3125,-1.265625 0.34375,-1.359375 0.5,0.046875 0.890625,0.21875 0.890625,0.578125 0,0.03125 0,0.0625 -0.015625,0.140625 -0.03125,0.09375 -0.03125,0.140625 -0.03125,0.21875 0,0.484375 0.40625,0.703125 0.75,0.703125 0.671875,0 0.875,-1.046875 0.875,-1.0625 0,-0.09375 -0.078125,-0.09375 -0.109375,-0.09375 -0.09375,0 -0.109375,0.046875 -0.140625,0.171875 C 3.5625,-0.625 3.375,-0.125 3.03125,-0.125 c -0.1875,0 -0.25,-0.171875 -0.25,-0.359375 0,-0.125 0,-0.140625 0.046875,-0.3125 0.015625,-0.03125 0.03125,-0.140625 0.03125,-0.21875 0,-0.625 -0.828125,-0.71875 -1.125,-0.734375 C 1.9375,-1.875 2.1875,-2.109375 2.3125,-2.21875 2.671875,-2.546875 3.015625,-2.875 3.40625,-2.875 c 0.078125,0 0.171875,0.015625 0.234375,0.09375 C 3.34375,-2.734375 3.28125,-2.5 3.28125,-2.390625 c 0,0.140625 0.109375,0.25 0.265625,0.25 0.203125,0 0.40625,-0.15625 0.40625,-0.4375 0,-0.234375 -0.171875,-0.5 -0.53125,-0.5 -0.40625,0 -0.765625,0.296875 -1.125,0.625 C 2,-2.1875 1.78125,-1.96875 1.484375,-1.84375 Z m 0,0"
           id="path2753" />
      </symbol>
      <symbol
         overflow="visible"
         id="symbol5293">
        <path
           style="stroke:none"
           d="M 1.96875,-4.625 C 1.96875,-4.640625 2,-4.734375 2,-4.734375 2,-4.78125 1.96875,-4.84375 1.875,-4.84375 c -0.140625,0 -0.71875,0.0625 -0.890625,0.078125 -0.046875,0 -0.140625,0.015625 -0.140625,0.15625 0,0.09375 0.09375,0.09375 0.171875,0.09375 0.34375,0 0.34375,0.0625 0.34375,0.109375 0,0.046875 -0.015625,0.09375 -0.03125,0.15625 l -0.875,3.4375 C 0.4375,-0.734375 0.4375,-0.65625 0.4375,-0.59375 c 0,0.453125 0.390625,0.65625 0.71875,0.65625 0.171875,0 0.390625,-0.046875 0.5625,-0.359375 C 1.875,-0.5625 1.96875,-0.96875 1.96875,-1 c 0,-0.09375 -0.09375,-0.09375 -0.109375,-0.09375 -0.109375,0 -0.125,0.046875 -0.140625,0.171875 C 1.625,-0.578125 1.484375,-0.125 1.1875,-0.125 1,-0.125 0.953125,-0.296875 0.953125,-0.46875 0.953125,-0.546875 0.96875,-0.671875 1,-0.75 Z m 0,0"
           id="path7182" />
      </symbol>
    </g>
    <g
       id="g881">
      <symbol
         overflow="visible"
         id="symbol9522">
        <path
           style="stroke:none"
           d=""
           id="path3829" />
      </symbol>
      <symbol
         overflow="visible"
         id="symbol295">
        <path
           style="stroke:none"
           d="m 3.65625,-3.984375 h 0.859375 c 0.203125,0 0.296875,0 0.296875,-0.203125 0,-0.109375 -0.09375,-0.109375 -0.265625,-0.109375 H 3.71875 L 3.921875,-5.4375 c 0.046875,-0.203125 0.1875,-0.90625 0.25,-1.03125 0.078125,-0.1875 0.25,-0.34375 0.46875,-0.34375 0.03125,0 0.296875,0 0.484375,0.1875 -0.4375,0.03125 -0.546875,0.390625 -0.546875,0.53125 0,0.234375 0.1875,0.359375 0.375,0.359375 C 5.21875,-5.734375 5.5,-5.96875 5.5,-6.34375 c 0,-0.453125 -0.453125,-0.6875 -0.859375,-0.6875 -0.34375,0 -0.96875,0.1875 -1.265625,1.171875 -0.0625,0.203125 -0.09375,0.3125 -0.328125,1.5625 h -0.6875 c -0.203125,0 -0.3125,0 -0.3125,0.1875 0,0.125 0.09375,0.125 0.28125,0.125 h 0.65625 L 2.25,-0.046875 c -0.1875,0.96875 -0.359375,1.875 -0.875,1.875 -0.046875,0 -0.28125,0 -0.484375,-0.1875 C 1.359375,1.609375 1.453125,1.25 1.453125,1.109375 1.453125,0.875 1.265625,0.75 1.078125,0.75 0.8125,0.75 0.53125,0.984375 0.53125,1.359375 c 0,0.4375 0.4375,0.6875 0.84375,0.6875 0.546875,0 0.953125,-0.59375 1.125,-0.96875 0.328125,-0.625 0.546875,-1.828125 0.5625,-1.90625 z m 0,0"
           id="path9145" />
      </symbol>
      <symbol
         overflow="visible"
         id="symbol6477">
        <path
           style="stroke:none"
           d=""
           id="path8361" />
      </symbol>
      <symbol
         overflow="visible"
         id="symbol5888">
        <path
           style="stroke:none"
           d="m 2.265625,-4.359375 c 0,-0.109375 -0.09375,-0.265625 -0.28125,-0.265625 -0.1875,0 -0.390625,0.1875 -0.390625,0.390625 0,0.109375 0.078125,0.265625 0.28125,0.265625 0.1875,0 0.390625,-0.203125 0.390625,-0.390625 z M 0.84375,-0.8125 c -0.03125,0.09375 -0.0625,0.171875 -0.0625,0.296875 0,0.328125 0.265625,0.578125 0.65625,0.578125 0.6875,0 1,-0.953125 1,-1.0625 0,-0.09375 -0.09375,-0.09375 -0.109375,-0.09375 -0.09375,0 -0.109375,0.046875 -0.140625,0.125 -0.15625,0.5625 -0.453125,0.84375 -0.734375,0.84375 -0.140625,0 -0.171875,-0.09375 -0.171875,-0.25 0,-0.15625 0.046875,-0.28125 0.109375,-0.4375 C 1.46875,-1 1.546875,-1.1875 1.609375,-1.375 1.671875,-1.546875 1.9375,-2.171875 1.953125,-2.265625 1.984375,-2.328125 2,-2.40625 2,-2.484375 2,-2.8125 1.71875,-3.078125 1.34375,-3.078125 0.640625,-3.078125 0.328125,-2.125 0.328125,-2 c 0,0.078125 0.09375,0.078125 0.125,0.078125 0.09375,0 0.09375,-0.03125 0.125,-0.109375 C 0.75,-2.625 1.0625,-2.875 1.3125,-2.875 c 0.109375,0 0.171875,0.046875 0.171875,0.234375 0,0.171875 -0.03125,0.265625 -0.203125,0.703125 z m 0,0"
           id="path4267" />
      </symbol>
      <symbol
         overflow="visible"
         id="symbol3721">
        <path
           style="stroke:none"
           d="M 3.0625,-4.359375 C 3.0625,-4.46875 2.96875,-4.625 2.78125,-4.625 c -0.203125,0 -0.390625,0.203125 -0.390625,0.390625 0,0.109375 0.078125,0.265625 0.28125,0.265625 0.1875,0 0.390625,-0.1875 0.390625,-0.390625 z M 1.578125,0.34375 C 1.46875,0.828125 1.09375,1.21875 0.6875,1.21875 c -0.09375,0 -0.171875,0 -0.25,-0.03125 0.171875,-0.09375 0.234375,-0.25 0.234375,-0.359375 0,-0.171875 -0.140625,-0.25 -0.28125,-0.25 C 0.1875,0.578125 0,0.765625 0,0.984375 c 0,0.265625 0.265625,0.4375 0.6875,0.4375 0.421875,0 1.234375,-0.25 1.453125,-1.09375 l 0.625,-2.5 c 0.015625,-0.078125 0.03125,-0.140625 0.03125,-0.25 0,-0.375 -0.328125,-0.65625 -0.734375,-0.65625 -0.78125,0 -1.21875,0.96875 -1.21875,1.078125 0,0.078125 0.09375,0.078125 0.109375,0.078125 0.078125,0 0.09375,-0.015625 0.140625,-0.125 C 1.265625,-2.453125 1.625,-2.875 2.03125,-2.875 c 0.171875,0 0.234375,0.109375 0.234375,0.34375 0,0.078125 0,0.171875 -0.015625,0.203125 z m 0,0"
           id="path1491" />
      </symbol>
      <symbol
         overflow="visible"
         id="symbol8266">
        <path
           style="stroke:none"
           d="m 2.1875,-4.625 c 0,-0.015625 0.015625,-0.109375 0.015625,-0.109375 0,-0.046875 -0.015625,-0.109375 -0.109375,-0.109375 -0.140625,0 -0.71875,0.0625 -0.890625,0.078125 -0.046875,0 -0.15625,0.015625 -0.15625,0.15625 0,0.09375 0.109375,0.09375 0.1875,0.09375 0.328125,0 0.328125,0.0625 0.328125,0.109375 0,0.046875 -0.015625,0.09375 -0.015625,0.15625 L 0.5625,-0.3125 c -0.046875,0.125 -0.046875,0.140625 -0.046875,0.15625 0,0.109375 0.09375,0.21875 0.25,0.21875 0.1875,0 0.265625,-0.125 0.3125,-0.28125 0.015625,-0.03125 0.3125,-1.265625 0.34375,-1.359375 0.5,0.046875 0.890625,0.21875 0.890625,0.578125 0,0.03125 0,0.0625 -0.015625,0.140625 -0.03125,0.09375 -0.03125,0.140625 -0.03125,0.21875 0,0.484375 0.40625,0.703125 0.75,0.703125 0.671875,0 0.875,-1.046875 0.875,-1.0625 0,-0.09375 -0.078125,-0.09375 -0.109375,-0.09375 -0.09375,0 -0.109375,0.046875 -0.140625,0.171875 C 3.5625,-0.625 3.375,-0.125 3.03125,-0.125 c -0.1875,0 -0.25,-0.171875 -0.25,-0.359375 0,-0.125 0,-0.140625 0.046875,-0.3125 0.015625,-0.03125 0.03125,-0.140625 0.03125,-0.21875 0,-0.625 -0.828125,-0.71875 -1.125,-0.734375 C 1.9375,-1.875 2.1875,-2.109375 2.3125,-2.21875 2.671875,-2.546875 3.015625,-2.875 3.40625,-2.875 c 0.078125,0 0.171875,0.015625 0.234375,0.09375 C 3.34375,-2.734375 3.28125,-2.5 3.28125,-2.390625 c 0,0.140625 0.109375,0.25 0.265625,0.25 0.203125,0 0.40625,-0.15625 0.40625,-0.4375 0,-0.234375 -0.171875,-0.5 -0.53125,-0.5 -0.40625,0 -0.765625,0.296875 -1.125,0.625 C 2,-2.1875 1.78125,-1.96875 1.484375,-1.84375 Z m 0,0"
           id="path9512" />
      </symbol>
      <symbol
         overflow="visible"
         id="symbol8651">
        <path
           style="stroke:none"
           d="M 1.96875,-4.625 C 1.96875,-4.640625 2,-4.734375 2,-4.734375 2,-4.78125 1.96875,-4.84375 1.875,-4.84375 c -0.140625,0 -0.71875,0.0625 -0.890625,0.078125 -0.046875,0 -0.140625,0.015625 -0.140625,0.15625 0,0.09375 0.09375,0.09375 0.171875,0.09375 0.34375,0 0.34375,0.0625 0.34375,0.109375 0,0.046875 -0.015625,0.09375 -0.03125,0.15625 l -0.875,3.4375 C 0.4375,-0.734375 0.4375,-0.65625 0.4375,-0.59375 c 0,0.453125 0.390625,0.65625 0.71875,0.65625 0.171875,0 0.390625,-0.046875 0.5625,-0.359375 C 1.875,-0.5625 1.96875,-0.96875 1.96875,-1 c 0,-0.09375 -0.09375,-0.09375 -0.109375,-0.09375 -0.109375,0 -0.125,0.046875 -0.140625,0.171875 C 1.625,-0.578125 1.484375,-0.125 1.1875,-0.125 1,-0.125 0.953125,-0.296875 0.953125,-0.46875 0.953125,-0.546875 0.96875,-0.671875 1,-0.75 Z m 0,0"
           id="path2810" />
      </symbol>
    </g>
    <g
       id="g807">
      <symbol
         overflow="visible"
         id="symbol8571">
        <path
           style="stroke:none"
           d=""
           id="path7550" />
      </symbol>
      <symbol
         overflow="visible"
         id="symbol5864">
        <path
           style="stroke:none"
           d="m 4.75,-2.359375 c 0,-1.5625 -0.921875,-2.046875 -1.65625,-2.046875 -1.375,0 -2.6875,1.421875 -2.6875,2.828125 0,0.9375 0.59375,1.6875 1.625,1.6875 0.625,0 1.34375,-0.234375 2.09375,-0.84375 0.125,0.53125 0.453125,0.84375 0.90625,0.84375 0.53125,0 0.84375,-0.546875 0.84375,-0.703125 0,-0.078125 -0.0625,-0.109375 -0.125,-0.109375 -0.0625,0 -0.09375,0.03125 -0.125,0.109375 -0.1875,0.484375 -0.546875,0.484375 -0.5625,0.484375 -0.3125,0 -0.3125,-0.78125 -0.3125,-1.015625 0,-0.203125 0,-0.234375 0.109375,-0.34375 C 5.796875,-2.65625 6,-3.8125 6,-3.8125 6,-3.84375 5.984375,-3.921875 5.875,-3.921875 c -0.09375,0 -0.09375,0.03125 -0.140625,0.21875 -0.1875,0.625 -0.515625,1.375 -0.984375,1.96875 z m -0.65625,1.375 c -0.890625,0.765625 -1.65625,0.875 -2.046875,0.875 -0.59375,0 -0.90625,-0.453125 -0.90625,-1.09375 0,-0.484375 0.265625,-1.5625 0.578125,-2.0625 C 2.1875,-4 2.734375,-4.1875 3.078125,-4.1875 c 0.984375,0 0.984375,1.3125 0.984375,2.078125 0,0.375 0,0.953125 0.03125,1.125 z m 0,0"
           id="path4583" />
      </symbol>
      <symbol
         overflow="visible"
         id="symbol5816">
        <path
           style="stroke:none"
           d=""
           id="path4958" />
      </symbol>
      <symbol
         overflow="visible"
         id="symbol2567">
        <path
           style="stroke:none"
           d="m 2.015625,-3.296875 c 0.0625,-0.109375 0.0625,-0.171875 0.0625,-0.21875 0,-0.21875 -0.1875,-0.375 -0.40625,-0.375 -0.265625,0 -0.34375,0.21875 -0.375,0.328125 L 0.375,-0.546875 c -0.015625,0.015625 -0.046875,0.09375 -0.046875,0.109375 0,0.078125 0.21875,0.15625 0.28125,0.15625 0.046875,0 0.046875,-0.015625 0.09375,-0.125 z m 0,0"
           id="path8394" />
      </symbol>
    </g>
    <g
       id="g2625">
      <symbol
         overflow="visible"
         id="symbol1080">
        <path
           style="stroke:none"
           d=""
           id="path8005" />
      </symbol>
      <symbol
         overflow="visible"
         id="symbol2249">
        <path
           style="stroke:none"
           d="m 6.5625,-5.9375 c 0.171875,0 0.359375,0 0.359375,-0.203125 0,-0.203125 -0.1875,-0.203125 -0.359375,-0.203125 H 3.890625 c -1.71875,0 -3.0625,1.3125 -3.0625,2.890625 0,1.59375 1.375,2.890625 3.0625,2.890625 H 6.5625 c 0.171875,0 0.359375,0 0.359375,-0.203125 0,-0.203125 -0.1875,-0.203125 -0.359375,-0.203125 H 3.90625 c -1.578125,0 -2.6875,-1.171875 -2.6875,-2.484375 0,-1.359375 1.140625,-2.484375 2.6875,-2.484375 z M 1.375,0.96875 c -0.171875,0 -0.34375,0 -0.34375,0.203125 0,0.1875 0.171875,0.1875 0.34375,0.1875 h 5.1875 c 0.171875,0 0.359375,0 0.359375,-0.1875 0,-0.203125 -0.1875,-0.203125 -0.359375,-0.203125 z m 0,0"
           id="path8097" />
      </symbol>
      <symbol
         overflow="visible"
         id="symbol2417">
        <path
           style="stroke:none"
           d=""
           id="path5815" />
      </symbol>
      <symbol
         overflow="visible"
         id="symbol2741">
        <path
           style="stroke:none"
           d="M 6.75,-1.609375 H 6.5 c -0.046875,0.25 -0.09375,0.484375 -0.1875,0.71875 -0.046875,0.15625 -0.078125,0.25 -0.65625,0.25 H 4.859375 C 5,-1.203125 5.296875,-1.6875 5.75,-2.34375 c 0.46875,-0.703125 0.875,-1.390625 0.875,-2.1875 0,-1.375 -1.34375,-2.5 -3.03125,-2.5 -1.703125,0 -3.03125,1.140625 -3.03125,2.5 0,0.796875 0.40625,1.484375 0.875,2.1875 0.4375,0.65625 0.75,1.140625 0.890625,1.703125 H 1.53125 C 0.953125,-0.640625 0.921875,-0.734375 0.875,-0.875 0.78125,-1.109375 0.734375,-1.359375 0.6875,-1.609375 h -0.25 L 0.765625,0 h 1.59375 c 0.21875,0 0.25,0 0.25,-0.203125 0,-0.703125 -0.3125,-1.578125 -0.53125,-2.21875 -0.21875,-0.578125 -0.5,-1.359375 -0.5,-2.109375 0,-1.59375 1.109375,-2.28125 2.015625,-2.28125 0.953125,0 2.015625,0.71875 2.015625,2.28125 0,0.75 -0.28125,1.5 -0.5625,2.3125 -0.15625,0.421875 -0.46875,1.328125 -0.46875,2.015625 C 4.578125,0 4.609375,0 4.828125,0 h 1.59375 z m 0,0"
           id="path2415" />
      </symbol>
    </g>
  </defs>
  <sodipodi:namedview
     id="base"
     pagecolor="#ffffff"
     bordercolor="#666666"
     borderopacity="1.0"
     inkscape:pageopacity="0.0"
     inkscape:pageshadow="2"
     inkscape:zoom="0.69999999"
     inkscape:cx="908.51267"
     inkscape:cy="283.1194"
     inkscape:document-units="mm"
     inkscape:current-layer="layer1"
     inkscape:document-rotation="0"
     showgrid="false"
     inkscape:snap-global="true"
     showborder="true">
    <inkscape:grid
       type="xygrid"
       id="grid2220"
       originx="-22.849831"
       originy="-26.863921" />
  </sodipodi:namedview>
  <metadata
     id="metadata5">
    <rdf:RDF>
      <cc:Work
         rdf:about="">
        <dc:format>image/svg+xml</dc:format>
        <dc:type
           rdf:resource="http://purl.org/dc/dcmitype/StillImage" />
        <dc:title />
      </cc:Work>
    </rdf:RDF>
  </metadata>
  <g
     inkscape:label="Layer 1"
     inkscape:groupmode="layer"
     id="layer1"
     transform="translate(-22.849831,-26.863923)">
    <g
       id="g2705"
       style="fill:#eff163;fill-opacity:0.172826;stroke:#1a1a1a;stroke-opacity:1"
       transform="translate(23.483927,-11.638369)">
      <path
         style="fill:#ececec;fill-opacity:0.44190738;stroke:#1a1a1a;stroke-width:0.3;stroke-linecap:butt;stroke-linejoin:miter;stroke-miterlimit:4;stroke-dasharray:none;stroke-opacity:1"
         d="M 74.083332,95.249999 26.458333,164.04166 74.083332,137.58333 V 95.249999 l 10e-7,42.333331 L 127,164.04167 74.083332,95.249999"
         id="path2699" />
      <path
         style="fill:#ececec;fill-opacity:0.44190738;stroke:#1a1a1a;stroke-width:0.264583px;stroke-linecap:butt;stroke-linejoin:miter;stroke-opacity:1"
         d="M 127,164.04166 74.083332,137.58333 26.458333,164.04166 H 127"
         id="path2701" />
    </g>
    <use
       xlink:href="#symbol3843"
       x="91.925003"
       y="81.962997"
       id="use6487"
       width="100%"
       height="100%"
       style="fill:#000000;fill-opacity:1"
       transform="translate(4.3236004,-4.3254593)" />
    <use
       xlink:href="#symbol4143"
       x="95.357117"
       y="81.962997"
       id="use7114"
       width="100%"
       height="100%"
       style="fill:#000000;fill-opacity:1"
       transform="translate(-56.28695,73.987959)" />
    <use
       xlink:href="#symbol9604"
       x="100.02758"
       y="81.962997"
       id="use5140"
       width="100%"
       height="100%"
       style="fill:#000000;fill-opacity:1"
       transform="translate(-5.5908026,56.988782)" />
    <use
       xlink:href="#symbol4510"
       x="105.53291"
       y="81.962997"
       id="use3127"
       width="100%"
       height="100%"
       style="fill:#000000;fill-opacity:1"
       transform="translate(51.430358,72.877653)" />
    <circle
       style="fill:#1a1a1a;stroke:#214478;stroke-width:0.765;stroke-linecap:round;stroke-linejoin:round;stroke-opacity:0.954821;paint-order:stroke markers fill"
       id="path2622"
       cx="97.63588"
       cy="83.847298"
       r="2.6458333" />
    <circle
       style="fill:#1a1a1a;stroke:#214478;stroke-width:0.765;stroke-linecap:round;stroke-linejoin:round;stroke-opacity:0.954821;paint-order:stroke markers fill"
       id="path2622-8"
       cx="50.010883"
       cy="152.63896"
       r="2.6458333" />
    <circle
       style="fill:#1a1a1a;stroke:#214478;stroke-width:0.765;stroke-linecap:round;stroke-linejoin:round;stroke-opacity:0.954821;paint-order:stroke markers fill"
       id="path2622-84"
       cx="150.63817"
       cy="152.36729"
       r="2.6458333" />
    <circle
       style="fill:#1a1a1a;stroke:#214478;stroke-width:0.765;stroke-linecap:round;stroke-linejoin:round;stroke-opacity:0.954821;paint-order:stroke markers fill"
       id="path2622-7"
       cx="97.793861"
       cy="126.5852"
       r="2.6458333" />
    <circle
       style="fill:#1a1a1a;stroke:#214478;stroke-width:0.765;stroke-linecap:round;stroke-linejoin:round;stroke-opacity:0.954821;paint-order:stroke markers fill"
       id="path2622-0"
       cx="268.98892"
       cy="68.60141"
       r="2.6458333" />
    <circle
       style="fill:#1a1a1a;stroke:#214478;stroke-width:0.765;stroke-linecap:round;stroke-linejoin:round;stroke-opacity:0.954821;paint-order:stroke markers fill"
       id="path2622-8-0"
       cx="221.36395"
       cy="137.39308"
       r="2.6458333" />
    <circle
       style="fill:#1a1a1a;stroke:#214478;stroke-width:0.765;stroke-linecap:round;stroke-linejoin:round;stroke-opacity:0.954821;paint-order:stroke markers fill"
       id="path2622-84-4"
       cx="321.99121"
       cy="137.12141"
       r="2.6458333" />
    <circle
       style="fill:#1a1a1a;stroke:#214478;stroke-width:0.765;stroke-linecap:round;stroke-linejoin:round;stroke-opacity:0.954821;paint-order:stroke markers fill"
       id="path2622-7-6"
       cx="269.14691"
       cy="111.33931"
       r="2.6458333" />
    <path
       style="fill:none;stroke:#000000;stroke-width:0.264583px;stroke-linecap:butt;stroke-linejoin:miter;stroke-opacity:1"
       d="M 322.35679,137.34964 V 89.724638 l -52.91667,-21.166663 -47.625,21.166663 v 47.625002 l 47.625,21.16667 z"
       id="path2960" />
    <path
       style="fill:none;stroke:#000000;stroke-width:0.264583px;stroke-linecap:butt;stroke-linejoin:miter;stroke-opacity:1"
       d="m 269.44012,158.5163 v -47.625 l 52.91667,-21.166662"
       id="path2962" />
    <path
       style="fill:none;stroke:#000000;stroke-width:0.264583px;stroke-linecap:butt;stroke-linejoin:miter;stroke-opacity:1"
       d="m 221.81512,89.724638 47.625,21.166662"
       id="path2964" />
    <circle
       style="fill:#e6e6e6;fill-opacity:1;stroke:#1a1a1a;stroke-width:0.8;stroke-linecap:round;stroke-linejoin:round;stroke-miterlimit:4;stroke-dasharray:none;stroke-opacity:1;paint-order:stroke markers fill"
       id="path2937"
       cx="222.40172"
       cy="90.1912"
       r="6.3783484" />
    <circle
       style="fill:#e6e6e6;fill-opacity:1;stroke:#1a1a1a;stroke-width:0.8;stroke-linecap:round;stroke-linejoin:round;stroke-miterlimit:4;stroke-dasharray:none;stroke-opacity:1;paint-order:stroke markers fill"
       id="path2937-7"
       cx="321.79028"
       cy="89.622757"
       r="6.3783484" />
    <circle
       style="fill:#e6e6e6;fill-opacity:1;stroke:#1a1a1a;stroke-width:0.8;stroke-linecap:round;stroke-linejoin:round;stroke-miterlimit:4;stroke-dasharray:none;stroke-opacity:1;paint-order:stroke markers fill"
       id="path2937-5"
       cx="269.23386"
       cy="158.1691"
       r="6.3783484" />
    <g
       id="g3841"
       transform="translate(63.608462,-117.26457)">
      <g
         style="fill:#000000;fill-opacity:1"
         id="g295"
         transform="translate(109.55652,96.625922)">
        <use
           xlink:href="#symbol2154"
           x="91.925003"
           y="81.962997"
           id="use3123"
           width="100%"
           height="100%" />
      </g>
      <g
         style="fill:#000000;fill-opacity:1"
         id="g3054"
         transform="translate(109.55652,96.625922)">
        <use
           xlink:href="#symbol6747"
           x="97.619003"
           y="83.457001"
           id="use6664"
           width="100%"
           height="100%" />
      </g>
    </g>
    <g
       id="g3847"
       transform="translate(14.994228,1.577938)">
      <g
         style="fill:#000000;fill-opacity:1"
         id="g2920"
         transform="translate(100.56187,64.590963)">
        <use
           xlink:href="#symbol2154"
           x="100.936"
           y="81.962997"
           id="use1285"
           width="100%"
           height="100%" />
      </g>
      <g
         style="fill:#000000;fill-opacity:1"
         id="g353"
         transform="translate(100.56187,64.590963)">
        <use
           xlink:href="#symbol2236"
           x="106.63"
           y="83.457001"
           id="use8000"
           width="100%"
           height="100%" />
      </g>
    </g>
    <g
       id="g3853"
       transform="translate(44.570864,-73.983341)">
      <g
         style="fill:#000000;fill-opacity:1"
         id="g679"
         transform="translate(109.55652,96.625922)">
        <use
           xlink:href="#symbol2154"
           x="110.828"
           y="81.962997"
           id="use9175"
           width="100%"
           height="100%" />
      </g>
      <g
         style="fill:#000000;fill-opacity:1"
         id="g8929"
         transform="translate(109.55652,96.625922)">
        <use
           xlink:href="#symbol9660"
           x="116.522"
           y="83.457001"
           id="use1390"
           width="100%"
           height="100%" />
      </g>
    </g>
    <g
       id="g3859"
       transform="translate(86.997215,-30.576614)">
      <g
         style="fill:#000000;fill-opacity:1"
         id="g1326"
         transform="translate(109.55652,96.625922)">
        <use
           xlink:href="#symbol2154"
           x="121.423"
           y="81.962997"
           id="use634"
           width="100%"
           height="100%" />
      </g>
      <g
         style="fill:#000000;fill-opacity:1"
         id="g8226"
         transform="translate(109.55652,96.625922)">
        <use
           xlink:href="#symbol5293"
           x="127.117"
           y="83.457001"
           id="use8090"
           width="100%"
           height="100%" />
      </g>
    </g>
    <g
       id="g3783"
       transform="translate(-39.927562,-116.78054)">
      <g
         style="fill:#000000;fill-opacity:1"
         id="g3637"
         transform="translate(161.0414,112.85628)">
        <use
           xlink:href="#symbol295"
           x="91.925003"
           y="81.962997"
           id="use6449"
           width="100%"
           height="100%" />
      </g>
      <g
         style="fill:#000000;fill-opacity:1"
         id="g5441"
         transform="translate(161.0414,112.85628)">
        <use
           xlink:href="#symbol5888"
           x="96.803001"
           y="83.457001"
           id="use7719"
           width="100%"
           height="100%" />
        <use
           xlink:href="#symbol3721"
           x="99.621811"
           y="83.457001"
           id="use5447"
           width="100%"
           height="100%" />
      </g>
      <g
         style="fill:#000000;fill-opacity:1"
         id="g9968"
         transform="translate(161.0414,112.85628)">
        <use
           xlink:href="#symbol8266"
           x="103.32281"
           y="83.457001"
           id="use7449"
           width="100%"
           height="100%" />
      </g>
    </g>
    <g
       id="g3792"
       transform="translate(45.922333,-117.22947)">
      <g
         style="fill:#000000;fill-opacity:1"
         id="g4219"
         transform="translate(161.0414,112.85628)">
        <use
           xlink:href="#symbol295"
           x="108.223"
           y="81.962997"
           id="use757"
           width="100%"
           height="100%" />
      </g>
      <g
         style="fill:#000000;fill-opacity:1"
         id="g9224"
         transform="translate(161.0414,112.85628)">
        <use
           xlink:href="#symbol5888"
           x="113.101"
           y="83.457001"
           id="use6739"
           width="100%"
           height="100%" />
        <use
           xlink:href="#symbol8266"
           x="115.91981"
           y="83.457001"
           id="use6045"
           width="100%"
           height="100%" />
      </g>
      <g
         style="fill:#000000;fill-opacity:1"
         id="g907"
         transform="translate(161.0414,112.85628)">
        <use
           xlink:href="#symbol8651"
           x="120.32237"
           y="83.457001"
           id="use7966"
           width="100%"
           height="100%" />
      </g>
    </g>
    <g
       id="g3802"
       transform="translate(-23.035293,-20.538453)">
      <g
         style="fill:#000000;fill-opacity:1"
         id="g5482"
         transform="translate(161.0414,112.85628)">
        <use
           xlink:href="#symbol295"
           x="123.381"
           y="81.962997"
           id="use9456"
           width="100%"
           height="100%" />
      </g>
      <g
         style="fill:#000000;fill-opacity:1"
         id="g4694"
         transform="translate(161.0414,112.85628)">
        <use
           xlink:href="#symbol3721"
           x="128.259"
           y="83.457001"
           id="use227"
           width="100%"
           height="100%" />
      </g>
      <g
         style="fill:#000000;fill-opacity:1"
         id="g6423"
         transform="translate(161.0414,112.85628)">
        <use
           xlink:href="#symbol8266"
           x="131.95999"
           y="83.457001"
           id="use2598"
           width="100%"
           height="100%" />
      </g>
      <g
         style="fill:#000000;fill-opacity:1"
         id="g5572"
         transform="translate(161.0414,112.85628)">
        <use
           xlink:href="#symbol8651"
           x="136.36255"
           y="83.457001"
           id="use5284"
           width="100%"
           height="100%" />
      </g>
    </g>
    <g
       id="g4390"
       transform="matrix(0.74309868,0,0,0.74309868,115.37807,25.216539)">
      <circle
         style="fill:#1a1a1a;stroke:#214478;stroke-width:0.43531;stroke-linecap:round;stroke-linejoin:round;stroke-opacity:0.954821;paint-order:stroke markers fill"
         id="path2622-9"
         cx="457.50226"
         cy="93.182724"
         r="1.505568" />
      <circle
         style="fill:#1a1a1a;stroke:#214478;stroke-width:0.43531;stroke-linecap:round;stroke-linejoin:round;stroke-opacity:0.954821;paint-order:stroke markers fill"
         id="path2622-8-6"
         cx="430.40204"
         cy="132.32748"
         r="1.505568" />
      <circle
         style="fill:#1a1a1a;stroke:#214478;stroke-width:0.43531;stroke-linecap:round;stroke-linejoin:round;stroke-opacity:0.954821;paint-order:stroke markers fill"
         id="path2622-84-0"
         cx="483.53891"
         cy="132.86845"
         r="1.505568" />
      <circle
         style="fill:#1a1a1a;stroke:#214478;stroke-width:0.43531;stroke-linecap:round;stroke-linejoin:round;stroke-opacity:0.954821;paint-order:stroke markers fill"
         id="path2622-7-2"
         cx="457.59213"
         cy="117.50203"
         r="1.505568" />
      <circle
         style="fill:#cccccc;fill-opacity:0.33909848;stroke:#1a1a1a;stroke-width:0.40371489;stroke-linecap:round;stroke-linejoin:round;stroke-miterlimit:4;stroke-dasharray:none;stroke-opacity:1;paint-order:stroke markers fill"
         id="path4016"
         cx="456.36432"
         cy="137.8846"
         r="35.375881" />
      <circle
         style="fill:#cccccc;fill-opacity:0.33909848;stroke:#1a1a1a;stroke-width:0.40371489;stroke-linecap:round;stroke-linejoin:round;stroke-miterlimit:4;stroke-dasharray:none;stroke-opacity:1;paint-order:stroke markers fill"
         id="path4016-6"
         cx="434.16287"
         cy="105.55282"
         r="35.375881" />
      <circle
         style="fill:#cccccc;fill-opacity:0.33909848;stroke:#1a1a1a;stroke-width:0.40371489;stroke-linecap:round;stroke-linejoin:round;stroke-miterlimit:4;stroke-dasharray:none;stroke-opacity:1;paint-order:stroke markers fill"
         id="path4016-1"
         cx="478.04779"
         cy="105.0526"
         r="35.375881" />
      <circle
         style="fill:#999999;stroke:#808080;stroke-width:0.435309;stroke-linecap:round;stroke-linejoin:round;stroke-opacity:0.954821;paint-order:stroke markers fill"
         id="path2622-84-0-3"
         cx="497.71094"
         cy="93.138718"
         r="1.505568" />
      <circle
         style="fill:#999999;stroke:#808080;stroke-width:0.435309;stroke-linecap:round;stroke-linejoin:round;stroke-opacity:0.954821;paint-order:stroke markers fill"
         id="path2622-84-0-3-2"
         cx="414.06317"
         cy="105.27842"
         r="1.505568" />
      <circle
         style="fill:#999999;stroke:#808080;stroke-width:0.435309;stroke-linecap:round;stroke-linejoin:round;stroke-opacity:0.954821;paint-order:stroke markers fill"
         id="path2622-84-0-3-1"
         cx="468.70236"
         cy="161.04568"
         r="1.505568" />
      <circle
         style="fill:#999999;stroke:#808080;stroke-width:0.435309;stroke-linecap:round;stroke-linejoin:round;stroke-opacity:0.954821;paint-order:stroke markers fill"
         id="path2622-84-0-3-5"
         cx="497.4068"
         cy="115.54958"
         r="1.505568" />
      <circle
         style="fill:#999999;stroke:#808080;stroke-width:0.435309;stroke-linecap:round;stroke-linejoin:round;stroke-opacity:0.954821;paint-order:stroke markers fill"
         id="path2622-84-0-3-9"
         cx="476.98413"
         cy="84.277328"
         r="1.505568" />
      <circle
         style="fill:#999999;stroke:#808080;stroke-width:0.435309;stroke-linecap:round;stroke-linejoin:round;stroke-opacity:0.954821;paint-order:stroke markers fill"
         id="path2622-84-0-3-4"
         cx="430.14926"
         cy="82.936089"
         r="1.505568" />
      <circle
         style="fill:#999999;stroke:#808080;stroke-width:0.435309;stroke-linecap:round;stroke-linejoin:round;stroke-opacity:0.954821;paint-order:stroke markers fill"
         id="path2622-84-0-3-58"
         cx="433.56592"
         cy="102.5311"
         r="1.505568" />
      <circle
         style="fill:#999999;stroke:#808080;stroke-width:0.435309;stroke-linecap:round;stroke-linejoin:round;stroke-opacity:0.954821;paint-order:stroke markers fill"
         id="path2622-84-0-3-910-7"
         cx="442.42111"
         cy="157.21019"
         r="1.505568" />
    </g>
    <g
       style="fill:#000000;fill-opacity:1"
       id="g371"
       transform="translate(314.55859,-4.859327)">
      <use
         xlink:href="#symbol5864"
         x="91.925003"
         y="81.962997"
         id="use9954"
         width="100%"
         height="100%" />
    </g>
    <g
       id="g4373"
       transform="translate(-2.9383322,-13.372397)">
      <g
         style="fill:#000000;fill-opacity:1"
         id="g4870"
         transform="translate(356.15388,99.791754)">
        <use
           xlink:href="#symbol5864"
           x="98.337929"
           y="81.962997"
           id="use3032"
           width="100%"
           height="100%" />
      </g>
      <g
         style="fill:#000000;fill-opacity:1"
         id="g6335"
         transform="translate(356.15388,99.791754)">
        <use
           xlink:href="#symbol2567"
           x="104.745"
           y="78.348"
           id="use5583"
           width="100%"
           height="100%" />
      </g>
    </g>
    <g
       id="g4361"
       transform="translate(64.751002,29.182192)">
      <g
         style="fill:#000000;fill-opacity:1"
         id="g273"
         transform="translate(320.72188,-32.886686)">
        <use
           xlink:href="#symbol5864"
           x="107.54"
           y="81.962997"
           id="use8151"
           width="100%"
           height="100%" />
      </g>
      <g
         style="fill:#000000;fill-opacity:1"
         id="g773"
         transform="translate(320.72188,-32.886686)">
        <use
           xlink:href="#symbol2567"
           x="113.95"
           y="78.348"
           id="use4320"
           width="100%"
           height="100%" />
        <use
           xlink:href="#symbol2567"
           x="116.24717"
           y="78.348"
           id="use43"
           width="100%"
           height="100%" />
      </g>
    </g>
  </g>
</svg>
